<?xml version="1.0" encoding="UTF-8"?>
<svg xmlns="http://www.w3.org/2000/svg">
  <defs>
    <symbol id="arrow-left" viewBox="0 0 20 20">
      <path d="M11.0469 15.9096L10.3531 16.6033C10.0594 16.8971 9.58435 16.8971 9.29373 16.6033L3.21873 10.5314C2.92498 10.2377 2.92498 9.7627 3.21873 9.47207L9.29373 3.39707C9.58748 3.10332 10.0625 3.10332 10.3531 3.39707L11.0469 4.09082C11.3437 4.3877 11.3375 4.87207 11.0344 5.1627L7.26873 8.7502H16.25C16.6656 8.7502 17 9.08457 17 9.5002V10.5002C17 10.9158 16.6656 11.2502 16.25 11.2502H7.26873L11.0344 14.8377C11.3406 15.1283 11.3469 15.6127 11.0469 15.9096Z"/>
    </symbol>
    <symbol id="close" viewBox="0 0 20 20">
      <path d="M12.085 10L15.2122 6.87281C15.5959 6.48906 15.5959 5.86687 15.2122 5.48281L14.5172 4.78781C14.1334 4.40406 13.5113 4.40406 13.1272 4.78781L10 7.915L6.87281 4.78781C6.48906 4.40406 5.86688 4.40406 5.48281 4.78781L4.78781 5.48281C4.40406 5.86656 4.40406 6.48875 4.78781 6.87281L7.915 10L4.78781 13.1272C4.40406 13.5109 4.40406 14.1331 4.78781 14.5172L5.48281 15.2122C5.86656 15.5959 6.48906 15.5959 6.87281 15.2122L10 12.085L13.1272 15.2122C13.5109 15.5959 14.1334 15.5959 14.5172 15.2122L15.2122 14.5172C15.5959 14.1334 15.5959 13.5113 15.2122 13.1272L12.085 10Z"/>
    </symbol>
    <symbol id="info" viewBox="0 0 24 24">
      <path d="M12 2.25C6.6156 2.25 2.25 6.61717 2.25 12C2.25 17.386 6.6156 21.75 12 21.75C17.3844 21.75 21.75 17.386 21.75 12C21.75 6.61717 17.3844 2.25 12 2.25ZM12 6.5746C12.9119 6.5746 13.6512 7.31387 13.6512 8.22581C13.6512 9.13775 12.9119 9.87702 12 9.87702C11.0881 9.87702 10.3488 9.13775 10.3488 8.22581C10.3488 7.31387 11.0881 6.5746 12 6.5746ZM14.2016 16.5605C14.2016 16.821 13.9904 17.0323 13.7298 17.0323H10.2702C10.0096 17.0323 9.79839 16.821 9.79839 16.5605V15.6169C9.79839 15.3564 10.0096 15.1452 10.2702 15.1452H10.7419V12.629H10.2702C10.0096 12.629 9.79839 12.4178 9.79839 12.1573V11.2137C9.79839 10.9532 10.0096 10.7419 10.2702 10.7419H12.7863C13.0468 10.7419 13.2581 10.9532 13.2581 11.2137V15.1452H13.7298C13.9904 15.1452 14.2016 15.3564 14.2016 15.6169V16.5605Z"/>
    </symbol>
    <symbol id="new-window" viewBox="0 0 16 16">
      <path d="M12.4 9.6001H11.6C11.4939 9.6001 11.3922 9.64224 11.3172 9.71725C11.2421 9.79227 11.2 9.89401 11.2 10.0001V12.8001H3.20001V4.8001H6.80001C6.90609 4.8001 7.00783 4.75795 7.08285 4.68294C7.15786 4.60793 7.20001 4.50618 7.20001 4.4001V3.6001C7.20001 3.49401 7.15786 3.39227 7.08285 3.31725C7.00783 3.24224 6.90609 3.2001 6.80001 3.2001H2.80001C2.48175 3.2001 2.17652 3.32653 1.95148 3.55157C1.72643 3.77661 1.60001 4.08184 1.60001 4.4001L1.60001 13.2001C1.60001 13.5184 1.72643 13.8236 1.95148 14.0486C2.17652 14.2737 2.48175 14.4001 2.80001 14.4001H11.6C11.9183 14.4001 12.2235 14.2737 12.4485 14.0486C12.6736 13.8236 12.8 13.5184 12.8 13.2001V10.0001C12.8 9.89401 12.7579 9.79227 12.6828 9.71725C12.6078 9.64224 12.5061 9.6001 12.4 9.6001ZM13.8 1.6001H10.6C10.0658 1.6001 9.79876 2.24785 10.175 2.6251L11.0683 3.51835L4.97501 9.60935C4.91907 9.66509 4.87469 9.73133 4.8444 9.80426C4.81412 9.87719 4.79853 9.95538 4.79853 10.0343C4.79853 10.1133 4.81412 10.1915 4.8444 10.2644C4.87469 10.3374 4.91907 10.4036 4.97501 10.4593L5.54176 11.0251C5.5975 11.081 5.66373 11.1254 5.73666 11.1557C5.8096 11.186 5.88779 11.2016 5.96676 11.2016C6.04572 11.2016 6.12392 11.186 6.19685 11.1557C6.26978 11.1254 6.33601 11.081 6.39176 11.0251L12.482 4.9331L13.375 5.8251C13.75 6.2001 14.4 5.9376 14.4 5.4001V2.2001C14.4 2.04097 14.3368 1.88836 14.2243 1.77583C14.1117 1.66331 13.9591 1.6001 13.8 1.6001V1.6001Z"/>
    </symbol>
    <symbol id="search" viewBox="0 0 20 20">
      <path d="M17.7812 15.8344L14.6656 12.7188C14.525 12.5781 14.3344 12.5 14.1344 12.5H13.625C14.4875 11.3969 15 10.0094 15 8.5C15 4.90937 12.0906 2 8.5 2C4.90937 2 2 4.90937 2 8.5C2 12.0906 4.90937 15 8.5 15C10.0094 15 11.3969 14.4875 12.5 13.625V14.1344C12.5 14.3344 12.5781 14.525 12.7188 14.6656L15.8344 17.7812C16.1281 18.075 16.6031 18.075 16.8938 17.7812L17.7781 16.8969C18.0719 16.6031 18.0719 16.1281 17.7812 15.8344ZM8.5 12.5C6.29063 12.5 4.5 10.7125 4.5 8.5C4.5 6.29063 6.2875 4.5 8.5 4.5C10.7094 4.5 12.5 6.2875 12.5 8.5C12.5 10.7094 10.7125 12.5 8.5 12.5Z"/>
    </symbol>
    <symbol id="spinner" viewBox="0 0 24 24">
      <path d="m150 398c0 10-3 19-10 26-8 7-16 11-26 11-10 0-19-4-26-11-7-7-11-16-11-26 0-10 4-18 11-26 7-7 16-10 26-10 10 0 18 3 26 10 7 8 10 16 10 26z m143 59c0 10-4 19-11 26-7 7-16 11-26 11-10 0-19-4-26-11-7-7-11-16-11-26 0-10 4-19 11-26 7-7 16-10 26-10 10 0 19 3 26 10 7 7 11 16 11 26z m-202-201c0 10-3 19-10 26-7 7-16 11-26 11-10 0-19-4-26-11-7-7-11-16-11-26 0-10 4-19 11-26 7-7 16-11 26-11 10 0 19 4 26 11 7 7 10 16 10 26z m344 142c0 10-4 19-11 26-7 7-16 11-26 11-10 0-18-4-26-11-7-7-10-16-10-26 0-10 3-18 10-26 8-7 16-10 26-10 10 0 19 3 26 10 7 8 11 16 11 26z m-276-284c0 12-4 23-13 32-9 9-20 13-32 13-13 0-24-4-33-13-9-9-13-20-13-32 0-13 4-24 13-33 9-9 20-13 33-13 12 0 23 4 32 13 9 9 13 20 13 33z m335 142c0 10-4 19-11 26-7 7-16 11-26 11-10 0-19-4-26-11-7-7-10-16-10-26 0-10 3-19 10-26 7-7 16-11 26-11 10 0 19 4 26 11 7 7 11 16 11 26z m-183-201c0 15-5 28-16 39-11 10-24 16-39 16-15 0-28-6-39-16-11-11-16-24-16-39 0-15 5-28 16-39 11-11 24-16 39-16 15 0 28 5 39 16 11 11 16 24 16 39z m151 59c0 17-6 33-19 45-12 12-27 19-45 19-17 0-33-7-45-19-12-12-19-28-19-45 0-18 7-33 19-45 12-13 28-19 45-19 18 0 33 6 45 19 13 12 19 27 19 45z" transform="scale(0.046875 0.046875)"/>
    </symbol>
  </defs>
</svg>
